<?xml version="1.0" encoding="UTF-8"?>
<svg id="Calque_1" data-name="Calque 1" xmlns="http://www.w3.org/2000/svg" viewBox="0 0 238.11 174.16">
  <path fill="white" d="M85,126.87c1.2-2.02,1.93-4.06,3.31-5.44C126.07,83.56,163.9,45.78,201.68,7.94,206.18,3.43,211.11-.03,217.76,0c8.03.04,14.13,3.63,17.88,10.69,3.78,7.09,3.16,14.15-1.42,20.73-1.42,2.03-3.22,3.82-4.98,5.58-42.74,42.77-85.5,85.53-128.27,128.29-11.78,11.78-22.34,11.82-34.04.13-19.91-19.9-39.79-39.84-59.73-59.7-5.43-5.41-8.36-11.68-6.76-19.37,3.12-15.02,20.7-21.23,32.37-11.21,6.8,5.85,12.9,12.52,19.27,18.87,10.49,10.44,20.94,20.91,32.92,32.88v-.02Z"/>
</svg>